<?xml version="1.0" encoding="utf-8"?>
<!-- Generator: Adobe Illustrator 27.5.0, SVG Export Plug-In . SVG Version: 6.00 Build 0)  -->
<svg version="1.1" xmlns="http://www.w3.org/2000/svg" xmlns:xlink="http://www.w3.org/1999/xlink" x="0px" y="0px"
	 viewBox="0 0 500 500" style="enable-background:new 0 0 500 500;" xml:space="preserve">
<g id="Background_Complete">
	<rect x="416.779" y="398.494" style="fill:#EBEBEB;" width="33.122" height="0.25"/>
	<rect x="322.527" y="401.208" style="fill:#EBEBEB;" width="8.693" height="0.25"/>
	<rect x="396.586" y="389.208" style="fill:#EBEBEB;" width="19.192" height="0.25"/>
	<rect x="52.459" y="390.888" style="fill:#EBEBEB;" width="43.193" height="0.25"/>
	<rect x="104.556" y="390.888" style="fill:#EBEBEB;" width="6.333" height="0.25"/>
	<rect x="131.471" y="395.111" style="fill:#EBEBEB;" width="93.676" height="0.25"/>
	<g>
		<path style="fill:#EBEBEB;" d="M238.401,337.8H45.302c-3.147,0-5.708-2.561-5.708-5.708V60.66c0-3.147,2.561-5.708,5.708-5.708
			h193.099c3.146,0,5.707,2.561,5.707,5.708v271.432C244.108,335.239,241.547,337.8,238.401,337.8z M45.302,55.203
			c-3.01,0-5.458,2.448-5.458,5.458v271.432c0,3.01,2.448,5.458,5.458,5.458h193.099c3.009,0,5.457-2.448,5.457-5.458V60.66
			c0-3.009-2.448-5.458-5.457-5.458H45.302z"/>
		<path style="fill:#EBEBEB;" d="M454.698,337.8H261.599c-3.146,0-5.707-2.561-5.707-5.708V60.66c0-3.147,2.561-5.708,5.707-5.708
			h193.099c3.148,0,5.708,2.561,5.708,5.708v271.432C460.406,335.239,457.845,337.8,454.698,337.8z M261.599,55.203
			c-3.009,0-5.457,2.448-5.457,5.458v271.432c0,3.01,2.448,5.458,5.457,5.458h193.099c3.01,0,5.458-2.448,5.458-5.458V60.66
			c0-3.009-2.448-5.458-5.458-5.458H261.599z"/>
	</g>
	<rect y="382.398" style="fill:#EBEBEB;" width="500" height="0.25"/>
	<g>
		<g>
			<g>
				<g>
					<rect x="79.126" y="100.325" style="fill:#E0E0E0;" width="1.8" height="140.366"/>
					<rect x="191.176" y="100.325" style="fill:#E0E0E0;" width="1.8" height="140.366"/>
				</g>
				<polygon style="fill:#EBEBEB;" points="200.026,109.15 72.076,109.15 69.376,102.85 202.726,102.85 				"/>
				<polygon style="fill:#EBEBEB;" points="200.026,117.799 72.076,117.799 69.376,111.499 202.726,111.499 				"/>
				<polygon style="fill:#EBEBEB;" points="200.026,126.449 72.076,126.449 69.376,120.149 202.726,120.149 				"/>
				<polygon style="fill:#EBEBEB;" points="200.026,135.098 72.076,135.098 69.376,128.798 202.726,128.798 				"/>
				<polygon style="fill:#EBEBEB;" points="200.026,143.747 72.076,143.747 69.376,137.447 202.726,137.447 				"/>
				<polygon style="fill:#EBEBEB;" points="200.026,152.397 72.076,152.397 69.376,146.097 202.726,146.097 				"/>
				<polygon style="fill:#EBEBEB;" points="200.026,161.046 72.076,161.046 69.376,154.746 202.726,154.746 				"/>
				<polygon style="fill:#EBEBEB;" points="200.026,169.696 72.076,169.696 69.376,163.396 202.726,163.396 				"/>
				<polygon style="fill:#EBEBEB;" points="200.026,178.345 72.076,178.345 69.376,172.045 202.726,172.045 				"/>
				<polygon style="fill:#EBEBEB;" points="200.026,186.994 72.076,186.994 69.376,180.694 202.726,180.694 				"/>
				<polygon style="fill:#EBEBEB;" points="200.026,195.644 72.076,195.644 69.376,189.344 202.726,189.344 				"/>
				<polygon style="fill:#EBEBEB;" points="200.026,204.293 72.076,204.293 69.376,197.993 202.726,197.993 				"/>
				<polygon style="fill:#EBEBEB;" points="200.026,212.943 72.076,212.943 69.376,206.643 202.726,206.643 				"/>
				<polygon style="fill:#EBEBEB;" points="200.026,221.592 72.076,221.592 69.376,215.292 202.726,215.292 				"/>
				<polygon style="fill:#EBEBEB;" points="200.026,230.241 72.076,230.241 69.376,223.941 202.726,223.941 				"/>
				<polygon style="fill:#EBEBEB;" points="200.026,238.891 72.076,238.891 69.376,232.591 202.726,232.591 				"/>
				<rect x="69.376" y="238.891" style="fill:#E0E0E0;" width="133.35" height="3.6"/>
				<rect x="64.726" y="94.96" style="fill:#E0E0E0;" width="142.65" height="8.401"/>
				<path style="fill:#E0E0E0;" d="M66.191,179.52L66.191,179.52c-0.802,0-1.451-0.65-1.451-1.451v-48.994
					c0-0.802,0.65-1.451,1.451-1.451l0,0c0.802,0,1.451,0.65,1.451,1.451v48.994C67.642,178.87,66.992,179.52,66.191,179.52z"/>
				<rect x="65.666" y="101.675" style="fill:#E0E0E0;" width="1.05" height="29.098"/>
			</g>
		</g>
	</g>
	<g>
		<rect x="327.425" y="124.56" style="fill:#EBEBEB;" width="107.892" height="256.084"/>
		<rect x="332.014" y="129.198" style="fill:#F0F0F0;" width="98.716" height="251.445"/>
		<rect x="339.483" y="274.64" style="fill:#FAFAFA;" width="84.303" height="92.087"/>
		<rect x="339.483" y="140.555" style="fill:#FAFAFA;" width="84.303" height="92.087"/>
		<g>
			<rect x="340.748" y="241.9" style="fill:#EBEBEB;" width="9.342" height="24.344"/>
			
				<rect x="350.09" y="241.9" transform="matrix(-1 -1.224647e-16 1.224647e-16 -1 702.0157 508.1432)" style="fill:#E0E0E0;" width="1.835" height="24.344"/>
			<path style="fill:#E0E0E0;" d="M347.005,251.463c0,2.176-1.764,3.94-3.94,3.94c-2.176,0-3.94-1.764-3.94-3.94
				s1.764-3.94,3.94-3.94C345.241,247.524,347.005,249.288,347.005,251.463z"/>
			<rect x="344.224" y="258.274" style="fill:#E0E0E0;" width="2.03" height="4.927"/>
			<path style="fill:#F0F0F0;" d="M355.836,251.463c0,1.337-11.627,2.421-12.964,2.421s-2.421-1.084-2.421-2.421
				s1.084-2.421,2.421-2.421S355.836,250.126,355.836,251.463z"/>
		</g>
	</g>
</g>
<g id="Background_Simple" style="display:none;">
	<g style="display:inline;">
		<g>
			<path style="fill:#407BFF;" d="M120.321,152.346c-28.166,12.72-44.934,41.637-50.8,70.363
				c-4.56,22.331-2.641,46.311,8.712,66.416c18.759,33.22,59.21,50.336,98.273,59.129c45.815,10.313,94.638,12.322,139.689-0.602
				c45.051-12.925,85.899-41.977,105.419-82.078c10.405-21.374,14.513-45.959,8.078-68.659c-6.436-22.7-24.308-43.027-48.142-50.441
				c-29.943-9.315-63.9,3.033-86.097,24.005c-11.017,10.409-22.541,23.972-38.162,22.897c-9.715-0.669-17.722-7.078-24.964-13.169
				C223.921,173.136,177.205,126.656,120.321,152.346z"/>
		</g>
		<g style="opacity:0.9;">
			<path style="fill:#FFFFFF;" d="M120.321,152.346c-28.166,12.72-44.934,41.637-50.8,70.363
				c-4.56,22.331-2.641,46.311,8.712,66.416c18.759,33.22,59.21,50.336,98.273,59.129c45.815,10.313,94.638,12.322,139.689-0.602
				c45.051-12.925,85.899-41.977,105.419-82.078c10.405-21.374,14.513-45.959,8.078-68.659c-6.436-22.7-24.308-43.027-48.142-50.441
				c-29.943-9.315-63.9,3.033-86.097,24.005c-11.017,10.409-22.541,23.972-38.162,22.897c-9.715-0.669-17.722-7.078-24.964-13.169
				C223.921,173.136,177.205,126.656,120.321,152.346z"/>
		</g>
	</g>
</g>
<g id="Shadow">
	<ellipse id="_x3C_Path_x3E__359_" style="fill:#F5F5F5;" cx="250" cy="415.693" rx="193.889" ry="11.323"/>
</g>
<g id="Plant">
	<g>
		<g>
			<g>
				<path style="fill:#263238;" d="M86.037,404.591c-0.037-0.34-3.535-34.418,4.279-63.406l0.966,0.26
					c-7.765,28.804-4.287,62.701-4.25,63.04L86.037,404.591z"/>
			</g>
			<g>
				<path style="fill:#407BFF;" d="M94.476,348.533c0,0-10.767,20.003-8.619,43.565C85.857,392.098,90.344,363.14,94.476,348.533z"
					/>
				<path style="fill:#407BFF;" d="M73.073,338.627c0,0,15.719,22.112,12.972,50.338C86.046,388.965,79.937,353.495,73.073,338.627z
					"/>
				<path style="fill:#407BFF;" d="M85.949,395.791c0,0,3.399-29.193-14.66-37.626C71.289,358.166,80.918,365.291,85.949,395.791z"
					/>
			</g>
			<path style="fill:#407BFF;" d="M87.849,341.631l-0.328,0.06c-0.507,0.093-0.824,0.601-0.684,1.097l0.408,1.454
				c0.179,0.638,0.974,0.853,1.45,0.393l0.539-0.521c0.456-0.44,1.214-0.265,1.43,0.33l0.73,2.005
				c0.188,0.516,0.799,0.734,1.271,0.452l1.673-0.998c0.483-0.288,0.573-0.951,0.183-1.357l-0.266-0.277
				c-0.526-0.549-0.15-1.461,0.61-1.48l1.453-0.036c0.52-0.013,0.914-0.474,0.846-0.99l-0.164-1.233
				c-0.079-0.591-0.712-0.932-1.249-0.672l-0.102,0.049c-0.732,0.354-1.509-0.395-1.182-1.139l0.48-1.092
				c0.234-0.534-0.109-1.143-0.686-1.219l-1.552-0.206c-0.513-0.068-0.973,0.322-0.99,0.839l0,0
				c-0.028,0.885-1.201,1.173-1.636,0.403l-0.205-0.363c-0.279-0.493-0.946-0.596-1.36-0.209l-1.151,1.077
				c-0.371,0.347-0.369,0.935,0.003,1.28l0.918,0.851C88.813,340.618,88.557,341.5,87.849,341.631z"/>
			<path style="opacity:0.7;fill:#FFFFFF;" d="M87.849,341.631l-0.328,0.06c-0.507,0.093-0.824,0.601-0.684,1.097l0.408,1.454
				c0.179,0.638,0.974,0.853,1.45,0.393l0.539-0.521c0.456-0.44,1.214-0.265,1.43,0.33l0.73,2.005
				c0.188,0.516,0.799,0.734,1.271,0.452l1.673-0.998c0.483-0.288,0.573-0.951,0.183-1.357l-0.266-0.277
				c-0.526-0.549-0.15-1.461,0.61-1.48l1.453-0.036c0.52-0.013,0.914-0.474,0.846-0.99l-0.164-1.233
				c-0.079-0.591-0.712-0.932-1.249-0.672l-0.102,0.049c-0.732,0.354-1.509-0.395-1.182-1.139l0.48-1.092
				c0.234-0.534-0.109-1.143-0.686-1.219l-1.552-0.206c-0.513-0.068-0.973,0.322-0.99,0.839l0,0
				c-0.028,0.885-1.201,1.173-1.636,0.403l-0.205-0.363c-0.279-0.493-0.946-0.596-1.36-0.209l-1.151,1.077
				c-0.371,0.347-0.369,0.935,0.003,1.28l0.918,0.851C88.813,340.618,88.557,341.5,87.849,341.631z"/>
		</g>
		<path style="fill:#407BFF;" d="M89.293,388.277l1.258-9.749H79.507l1.258,9.749c-5.11,1.769-8.785,6.61-8.785,12.322
			c0,2.647,0.788,5.784,2.143,8.695c1.244,2.674,3.977,4.341,6.926,4.341h7.959c2.95,0,5.682-1.667,6.926-4.341
			c1.354-2.91,2.143-6.048,2.143-8.695C98.077,394.887,94.402,390.045,89.293,388.277z"/>
		<path style="opacity:0.7;fill:#FFFFFF;" d="M89.293,388.277l1.258-9.749H79.507l1.258,9.749c-5.11,1.769-8.785,6.61-8.785,12.322
			c0,2.647,0.788,5.784,2.143,8.695c1.244,2.674,3.977,4.341,6.926,4.341h7.959c2.95,0,5.682-1.667,6.926-4.341
			c1.354-2.91,2.143-6.048,2.143-8.695C98.077,394.887,94.402,390.045,89.293,388.277z"/>
	</g>
</g>
<g id="Desk">
	<g id="Layer_9">
		<g>
			<g>
				<g>
					<polygon style="fill:#263238;" points="307.931,293.515 307.931,413.019 311.191,413.019 314.091,299.615 317.931,299.615 
						317.931,293.515 					"/>
					<g>
						<polygon style="fill:#263238;" points="310.824,413.016 313.931,413.016 317.931,293.519 313.824,293.519 						"/>
					</g>
					<g style="opacity:0.3;">
						<polygon style="fill:#FFFFFF;" points="311.424,413.016 313.931,413.016 317.649,299.757 314.142,299.757 						"/>
					</g>
					<polygon style="opacity:0.5;fill:#FFFFFF;" points="307.931,293.515 307.931,413.019 311.191,413.019 314.091,299.615 
						317.931,299.615 317.931,293.515 					"/>
				</g>
				<g>
					<g>
						<g>
							<g>
								<g>
									<polygon style="fill:#263238;" points="112.16,413.016 115.267,413.016 119.267,293.684 115.16,293.684 									"/>
									<polygon style="opacity:0.3;fill:#FFFFFF;" points="112.16,413.016 115.267,413.016 119.267,293.684 115.16,293.684 
																			"/>
								</g>
								<g>
									<polygon style="fill:#263238;" points="162.267,293.684 162.267,413.016 158.978,413.016 155.109,299.474 115.425,299.474 
										112.523,413.016 109.267,413.016 109.267,293.684 									"/>
									<polygon style="opacity:0.5;fill:#FFFFFF;" points="162.267,293.684 162.267,413.016 158.978,413.016 155.109,299.474 
										115.425,299.474 112.523,413.016 109.267,413.016 109.267,293.684 									"/>
								</g>
								<g>
									<polygon style="fill:#263238;" points="162.267,413.016 165.374,413.016 166.374,293.684 162.267,293.684 									"/>
									<polygon style="opacity:0.3;fill:#FFFFFF;" points="162.267,413.016 165.374,413.016 166.374,293.684 162.267,293.684 
																			"/>
								</g>
							</g>
							<g>
								<g>
									<polygon style="fill:#263238;" points="317.933,293.681 317.933,299.478 353.773,299.478 357.643,413.019 360.933,413.019 
										360.933,293.681 									"/>
									<polygon style="opacity:0.5;fill:#FFFFFF;" points="317.933,293.681 317.933,299.478 353.773,299.478 357.643,413.019 
										360.933,413.019 360.933,293.681 									"/>
									<polygon style="opacity:0.3;fill:none;" points="317.933,293.681 317.933,299.478 353.773,299.478 357.643,413.019 
										360.933,413.019 360.933,293.681 									"/>
								</g>
								<g>
									<polygon style="fill:#263238;" points="360.934,413.016 364.04,413.016 365.04,293.684 360.934,293.684 									"/>
								</g>
								<g style="opacity:0.3;">
									<polygon style="fill:#FFFFFF;" points="360.934,413.016 364.04,413.016 365.04,293.684 360.934,293.684 									"/>
								</g>
							</g>
							<g>
								<g>
									
										<rect x="164.83" y="285.977" transform="matrix(-1 -1.224647e-16 1.224647e-16 -1 535.3074 579.6196)" style="fill:#263238;" width="205.647" height="7.667"/>
									
										<rect x="164.83" y="285.977" transform="matrix(-1 -1.224647e-16 1.224647e-16 -1 535.3074 579.6196)" style="opacity:0.8;fill:#FFFFFF;" width="205.647" height="7.667"/>
								</g>
								<g>
									
										<rect x="103.83" y="285.977" transform="matrix(-1 -1.224647e-16 1.224647e-16 -1 273.4354 579.6196)" style="fill:#263238;" width="65.775" height="7.667"/>
									
										<rect x="103.83" y="285.977" transform="matrix(-1 -1.224647e-16 1.224647e-16 -1 273.4354 579.6196)" style="opacity:0.6;fill:#FFFFFF;" width="65.775" height="7.667"/>
								</g>
							</g>
						</g>
					</g>
				</g>
			</g>
			<g>
				<g>
					<g>
						<path style="fill:#263238;" d="M149.576,283.858v1.06c0,0.549,0.445,0.994,0.994,0.994h38.025c0.506,0,0.916-0.41,0.916-0.916
							v-1.021c0-0.506-0.41-0.916-0.916-0.916h-9.456c-1.074,0-1.889-0.968-1.706-2.026l3.317-19.164h-21.598l-9.247,20.463
							C149.688,282.812,149.576,283.332,149.576,283.858z"/>
						<path style="opacity:0.2;fill:#FFFFFF;" d="M189.51,283.974v1.025c0,0.507-0.407,0.914-0.914,0.914h-38.024
							c-0.549,0-0.998-0.449-0.998-0.993v-1.062c0-0.28,0.032-0.56,0.095-0.835c0.058-0.238,0.132-0.47,0.232-0.692l9.25-20.459
							h21.601l-3.318,19.16c-0.021,0.116-0.032,0.227-0.026,0.338c0.016,0.803,0.597,1.495,1.373,1.653
							c0.116,0.026,0.232,0.037,0.359,0.037h9.456C189.103,283.06,189.51,283.472,189.51,283.974z"/>
						<g>
							<g>
								<path style="fill:#263238;" d="M148.682,282.333l9.247-20.463h1.223l-9.247,20.463c-0.217,0.479-0.329,0.999-0.329,1.525
									v1.06c0,0.549,0.445,0.994,0.994,0.994h-1.222c-0.549,0-0.994-0.445-0.994-0.994v-1.06
									C148.353,283.332,148.465,282.812,148.682,282.333z"/>
							</g>
						</g>
						<polygon style="opacity:0.3;" points="159.152,261.87 180.749,261.87 179.903,266.76 156.942,266.76 						"/>
					</g>
					<g>
						<g>
							<g>
								<path style="fill:#263238;" d="M216.997,264.019h-92.147c-1.861,0-3.368-1.508-3.369-3.369l-0.001-66.587
									c-0.001-1.861,1.509-3.369,3.37-3.369h92.147c1.861,0,3.372,1.508,3.369,3.369l0.001,66.587
									C220.368,262.511,218.858,264.019,216.997,264.019z"/>
							</g>
						</g>
						<g style="opacity:0.2;">
							<g>
								<path style="fill:#FFFFFF;" d="M216.997,264.019h-92.147c-1.861,0-3.368-1.508-3.369-3.369l-0.001-66.587
									c-0.001-1.861,1.509-3.369,3.37-3.369h92.147c1.861,0,3.372,1.508,3.369,3.369l0.001,66.587
									C220.368,262.511,218.858,264.019,216.997,264.019z"/>
							</g>
						</g>
						<path style="fill:#407BFF;" d="M124.911,251.415h92.027c1.009,0,1.827-0.818,1.827-1.827l0-55.034
							c0-1.009-0.818-1.827-1.827-1.827h-92.027c-1.009,0-1.827,0.818-1.827,1.827v55.034
							C123.084,250.597,123.902,251.415,124.911,251.415z"/>
						<path style="opacity:0.6;fill:#FFFFFF;" d="M124.911,251.415h92.027c1.009,0,1.827-0.818,1.827-1.827l0-55.034
							c0-1.009-0.818-1.827-1.827-1.827h-92.027c-1.009,0-1.827,0.818-1.827,1.827v55.034
							C123.084,250.597,123.902,251.415,124.911,251.415z"/>
						<g>
							<path style="fill:#407BFF;" d="M122.812,190.694h2.037c-1.86,0-3.369,1.508-3.369,3.369v66.587
								c0,1.861,1.508,3.369,3.369,3.369h-2.037c-1.861,0-3.369-1.508-3.369-3.369v-66.587
								C119.443,192.202,120.952,190.694,122.812,190.694z"/>
							<path style="opacity:0.3;fill:#FFFFFF;" d="M122.812,190.694h2.037c-1.86,0-3.369,1.508-3.369,3.369v66.587
								c0,1.861,1.508,3.369,3.369,3.369h-2.037c-1.861,0-3.369-1.508-3.369-3.369v-66.587
								C119.443,192.202,120.952,190.694,122.812,190.694z"/>
						</g>
						<g style="opacity:0.2;">
							<polygon style="fill:#FFFFFF;" points="162.848,192.727 159.309,192.727 141.7,251.415 145.24,251.415 							"/>
							<polygon style="fill:#FFFFFF;" points="138.122,251.415 155.731,192.727 142.432,192.727 124.823,251.415 							"/>
						</g>
					</g>
				</g>
				<path style="opacity:0.2;fill:#FFFFFF;" d="M156.146,283.981v0.973c0,0.529,0.429,0.958,0.958,0.958h31.492
					c0.506,0,0.915-0.41,0.915-0.915v-1.021c0-0.506-0.41-0.915-0.915-0.915h-9.458c-0.122,0-0.24-0.013-0.354-0.038h-21.679
					C156.575,283.023,156.146,283.452,156.146,283.981z"/>
				<path style="opacity:0.2;" d="M149.671,283.023h29.112c-0.78-0.156-1.358-0.848-1.375-1.654h-26.995L149.671,283.023z"/>
			</g>
			<g>
				<g>
					<g>
						<path style="fill:#263238;" d="M221.784,283.595h2.753c0.29,0,0.526-0.215,0.526-0.48v-2.657c0-0.265-0.235-0.48-0.526-0.48
							h-1.977c-0.238,0-0.447,0.146-0.508,0.356l-0.777,2.657C221.187,283.297,221.439,283.595,221.784,283.595z"/>
						<path style="fill:#263238;" d="M217.979,283.595h2.753c0.29,0,0.526-0.215,0.526-0.48v-2.657c0-0.265-0.235-0.48-0.526-0.48
							h-1.977c-0.238,0-0.447,0.146-0.508,0.356l-0.776,2.657C217.382,283.297,217.634,283.595,217.979,283.595z"/>
						<path style="fill:#263238;" d="M214.174,283.595h2.753c0.29,0,0.526-0.215,0.526-0.48v-2.657c0-0.265-0.235-0.48-0.526-0.48
							h-1.977c-0.238,0-0.447,0.146-0.508,0.356l-0.776,2.657C213.577,283.297,213.829,283.595,214.174,283.595z"/>
						<path style="fill:#263238;" d="M210.369,283.595h2.753c0.29,0,0.526-0.215,0.526-0.48v-2.657c0-0.265-0.235-0.48-0.526-0.48
							h-1.977c-0.238,0-0.447,0.146-0.508,0.356l-0.777,2.657C209.772,283.297,210.023,283.595,210.369,283.595z"/>
						<path style="fill:#263238;" d="M206.564,283.595h2.753c0.29,0,0.526-0.215,0.526-0.48v-2.657c0-0.265-0.235-0.48-0.526-0.48
							h-1.977c-0.238,0-0.446,0.146-0.508,0.356l-0.776,2.657C205.967,283.297,206.218,283.595,206.564,283.595z"/>
						<path style="fill:#263238;" d="M202.759,283.595h2.753c0.291,0,0.526-0.215,0.526-0.48v-2.657c0-0.265-0.235-0.48-0.526-0.48
							h-1.977c-0.238,0-0.447,0.146-0.508,0.356l-0.777,2.657C202.162,283.297,202.413,283.595,202.759,283.595z"/>
						<path style="fill:#263238;" d="M198.954,283.595h2.753c0.291,0,0.526-0.215,0.526-0.48v-2.657c0-0.265-0.235-0.48-0.526-0.48
							h-1.977c-0.238,0-0.447,0.146-0.508,0.356l-0.777,2.657C198.357,283.297,198.608,283.595,198.954,283.595z"/>
						<path style="fill:#263238;" d="M195.148,283.595h2.753c0.29,0,0.526-0.215,0.526-0.48v-2.657c0-0.265-0.235-0.48-0.526-0.48
							h-1.977c-0.238,0-0.447,0.146-0.508,0.356l-0.776,2.657C194.552,283.297,194.803,283.595,195.148,283.595z"/>
						<path style="fill:#263238;" d="M191.343,283.595h2.753c0.29,0,0.526-0.215,0.526-0.48v-2.657c0-0.265-0.235-0.48-0.526-0.48
							h-1.977c-0.238,0-0.447,0.146-0.508,0.356l-0.777,2.657C190.747,283.297,190.998,283.595,191.343,283.595z"/>
						<path style="fill:#263238;" d="M187.538,283.595h2.753c0.29,0,0.526-0.215,0.526-0.48v-2.657c0-0.265-0.235-0.48-0.526-0.48
							h-1.977c-0.238,0-0.446,0.146-0.508,0.356l-0.777,2.657C186.941,283.297,187.193,283.595,187.538,283.595z"/>
						<path style="fill:#263238;" d="M183.733,283.595h2.753c0.29,0,0.526-0.215,0.526-0.48v-2.657c0-0.265-0.235-0.48-0.526-0.48
							h-1.977c-0.238,0-0.447,0.146-0.508,0.356l-0.777,2.657C183.136,283.297,183.388,283.595,183.733,283.595z"/>
						<path style="fill:#263238;" d="M179.928,283.595h2.753c0.29,0,0.526-0.215,0.526-0.48v-2.657c0-0.265-0.235-0.48-0.526-0.48
							h-1.977c-0.238,0-0.447,0.146-0.508,0.356l-0.776,2.657C179.331,283.297,179.583,283.595,179.928,283.595z"/>
						<path style="fill:#263238;" d="M176.123,283.595h2.753c0.29,0,0.526-0.215,0.526-0.48v-2.657c0-0.265-0.235-0.48-0.526-0.48
							H176.9c-0.238,0-0.447,0.146-0.508,0.356l-0.776,2.657C175.526,283.297,175.778,283.595,176.123,283.595z"/>
						<path style="fill:#263238;" d="M172.318,283.595h2.754c0.29,0,0.526-0.215,0.526-0.48v-2.657c0-0.265-0.235-0.48-0.526-0.48
							h-1.977c-0.238,0-0.447,0.146-0.508,0.356l-0.776,2.657C171.721,283.297,171.973,283.595,172.318,283.595z"/>
						<path style="fill:#263238;" d="M168.513,283.595h2.753c0.29,0,0.526-0.215,0.526-0.48v-2.657c0-0.265-0.235-0.48-0.526-0.48
							h-1.977c-0.238,0-0.447,0.146-0.508,0.356l-0.776,2.657C167.916,283.297,168.168,283.595,168.513,283.595z"/>
					</g>
					<path style="fill:#263238;" d="M165.742,283.884c0,1.157,1.035,2.091,2.292,2.091h56.972c1.268,0,2.292-0.934,2.292-2.091
						c0-0.579-0.256-1.107-0.668-1.482c-0.401-0.365-0.957-0.599-1.569-0.609h-57.028c-0.222,0-0.434,0.031-0.634,0.081
						C166.442,282.127,165.742,282.929,165.742,283.884z"/>
				</g>
				<path style="opacity:0.2;fill:#FFFFFF;" d="M165.742,283.884c0,1.157,1.035,2.091,2.292,2.091h56.972
					c1.268,0,2.292-0.934,2.292-2.091c0-0.579-0.256-1.107-0.668-1.482c-0.401-0.365-0.957-0.599-1.569-0.609h-57.028
					c-0.222,0-0.434,0.031-0.634,0.081C166.442,282.127,165.742,282.929,165.742,283.884z"/>
				<path style="fill:#263238;" d="M165.742,283.884c0,1.157,1.035,2.091,2.292,2.091h19.291c0.923-0.274,1.591-1.066,1.591-2
					c0-0.132-0.011-0.254-0.033-0.376c-0.089-0.426-0.311-0.812-0.645-1.106c-0.145-0.132-0.311-0.244-0.489-0.345
					c-0.089-0.041-0.178-0.081-0.267-0.122c-0.278-0.102-0.568-0.152-0.879-0.152h-19.201
					C166.442,282.127,165.742,282.929,165.742,283.884z"/>
			</g>
		</g>
	</g>
</g>
<g id="Character_2">
	<g>
		<g>
			<g>
				<path style="fill:#263238;" d="M344.729,245.475c0,0,7.365,91.55,7.423,92.075l4.66,54.585h10.126c0,0,0.316-2.93,0.946-7.074
					c5.515-36.287,1.601-48.231,1.601-48.231s4.858-70.059,6.555-75.343C376.214,260.943,370.508,222.492,344.729,245.475z"/>
			</g>
			<g style="opacity:0.2;">
				<path d="M344.729,245.475c0,0,7.365,91.55,7.423,92.075l4.66,54.585h10.126c0,0,0.316-2.93,0.946-7.074
					c5.515-36.287,1.601-48.231,1.601-48.231s4.858-70.059,6.555-75.343C376.214,260.943,370.508,222.492,344.729,245.475z"/>
			</g>
			<g>
				<g>
					<path style="fill:#263238;" d="M344.785,244.213L344.785,244.213c2.145,7.903,7.175,14.715,14.097,19.091l6.996,4.423
						c0,0,36.429-35.109,4.458-42.804C364.15,223.434,344.785,244.213,344.785,244.213z"/>
				</g>
			</g>
			<g>
				<g>
					<polygon style="fill:#FF8B7B;" points="436.1,383.174 429.742,387.46 423.791,379.82 417.351,371.549 417.346,371.54 
						424.834,366.407 425.847,367.915 430.863,375.377 					"/>
					<polygon style="opacity:0.2;enable-background:new    ;" points="430.863,375.377 423.791,379.82 417.351,371.549 
						425.011,366.743 425.847,367.915 					"/>
					<g>
						<path style="fill:#263238;" d="M394.072,279.57c0.145,12.091,2.782,33.927,4.453,45.903c0,0,9.04,10.727,13.921,18.163
							l15.517,25.535l-9.565,6.195l-30.407-32.793c-8.718-6.623-7.321-10.622-9.534-16.679
							c-5.408-14.799-8.891-30.756-11.266-45.206c-1.102-6.702-5.935-28.462-4.249-35.042c2.263-8.831,4.892-24.053,15.254-17.509
							C386.904,233.637,393.628,242.594,394.072,279.57z"/>
					</g>
					<polygon style="fill:#407BFF;" points="431.564,371.689 419.739,379.137 414.936,374.199 428.227,365.699 					"/>
					<g>
						<path style="fill:#263238;" d="M428.485,387.729l4.814-8.424c0.158-0.313,0.531-0.452,0.855-0.316l7.199,2.833
							c0.701,0.302,1.025,1.115,0.724,1.816c-0.02,0.047-0.043,0.094-0.069,0.138c-1.728,2.903-2.695,4.217-4.809,7.914
							c-1.288,2.276-3.823,7.493-5.605,10.639c-1.782,3.147-4.996,1.543-4.532,0.068c2.077-6.576,1.746-10.262,1.204-13.182
							C428.166,388.708,428.243,388.184,428.485,387.729z"/>
						<path style="fill:#407BFF;" d="M427.13,392.236c1.043-0.342,1.755-2.242,2.059-3.333c0.021-0.078-0.005-0.16-0.065-0.213
							c-0.061-0.055-0.151-0.065-0.223-0.025c-0.318,0.161-3.074,1.602-3.176,2.69c-0.022,0.252,0.09,0.496,0.296,0.643
							c0.089,0.068,0.185,0.126,0.286,0.175C426.563,392.302,426.859,392.325,427.13,392.236z M428.656,389.261
							c-0.492,1.451-1.088,2.405-1.65,2.588c-0.259,0.073-0.538,0.004-0.734-0.181c-0.098-0.052-0.153-0.16-0.138-0.27
							C426.189,390.82,427.568,389.872,428.656,389.261L428.656,389.261z"/>
						<path style="fill:#407BFF;" d="M429.1,389.02c0.063-0.037,0.101-0.106,0.1-0.179c-0.011-0.07-0.055-0.131-0.117-0.165
							c-0.092-0.053-2.249-1.264-3.434-0.864c-0.295,0.097-0.533,0.317-0.651,0.604c-0.16,0.295-0.097,0.661,0.154,0.885
							c0.064,0.053,0.135,0.097,0.211,0.13C426.273,389.875,428.349,389.468,429.1,389.02z M428.55,388.839
							c-0.98,0.384-2.681,0.545-3.132,0.153c-0.07-0.069-0.147-0.176-0.044-0.411c0.073-0.186,0.224-0.329,0.413-0.391
							c0.689-0.231,1.945,0.259,2.699,0.62L428.55,388.839z"/>
					</g>
				</g>
			</g>
			<g>
				<g>
					<g>
						<g>
							<path style="fill:#FF8B7B;" d="M324.66,281.35l-6.72-0.429c0,0-4.713-33.863-5.163-35.213
								c-0.62-2.46-4.388-21.338-5.878-26.158l0.72-0.11c-0.8-2.48-0.12-5.16,2.49-5.97c2.62-0.81,6.19,0.54,6.98,3.03
								c1.68,5.03,4.878,23.978,5.358,26.278c0.01,0.05,0.02,0.11,0.02,0.16C323.948,252.788,324.66,281.35,324.66,281.35z"/>
						</g>
						<g>
							<g>
								<path style="fill:#FF8B7B;" d="M324.66,281.35c0.036,3.076-2.799,4.67-4.815,4.88H309.18l-0.62-0.15
									c-0.27-0.07-0.35-0.42-0.14-0.6l1.918-1.544c2.12-1.707,4.987-2.263,7.603-3.015L324.66,281.35z"/>
							</g>
						</g>
					</g>
					<path style="fill:#407BFF;" d="M311.591,203.117c-10.913,5.253-3.29,27.124-3.29,27.124l13.412-1.273
						c0,0,1.331-15.857-0.195-20.806C319.91,203.008,316.805,199.706,311.591,203.117z"/>
					<path style="opacity:0.2;enable-background:new    ;" d="M315.628,229.546c0,0-3.003-16.014-0.061-19.003
						c0.863-0.647,1.838-1.13,2.876-1.425c3.588,1.555,2.844,6.722,2.844,6.722l0.426,13.128
						C320.029,229.252,315.628,229.546,315.628,229.546z"/>
					<path style="fill:#407BFF;" d="M313.644,217.065c3.5,6.073,10.999,14.208,30.98,26.717l24.655-19.001
						c-8.286-9.913-13.454-16.512-23.577-37.903c-0.99-2.091-2.837-3.719-5.093-4.232c-1.934-0.44-3.878-0.107-5.48,0.828
						c-1.827,1.072-3.816,2.305-5.756,3.66c-4.418,2.924-8.622,6.159-12.581,9.68c-2.766,2.554-5.525,5.475-7.488,7.619
						c0,0,0.026,0.34,0.157,1.122C310.139,209.615,311.589,213.499,313.644,217.065z"/>
				</g>
				<path style="opacity:0.2;enable-background:new    ;" d="M347.218,189.09c0.328,0.854,0.665,1.706,1.001,2.462
					c1.332,3.304,3.827,8.286,5.632,11.357c-7.979,1.426-16.182-2.993-17.39-5.878C335.695,195.281,343.216,190.262,347.218,189.09z
					"/>
				<path style="fill:#407BFF;" d="M368.445,222.839l3.159,1.514c0.247,0.118,0.195,0.481-0.149,0.735l-26.726,20.387
					c-0.253,0.197-0.555,0.225-0.686,0.088l-2.161-2.288c-0.15-0.158-0.046-0.466,0.228-0.681l25.725-19.621
					C367.999,222.822,368.232,222.772,368.445,222.839z"/>
				<path style="opacity:0.6;fill:#FFFFFF;" d="M368.445,222.839l3.159,1.514c0.247,0.118,0.195,0.481-0.149,0.735l-26.726,20.387
					c-0.253,0.197-0.555,0.225-0.686,0.088l-2.161-2.288c-0.15-0.158-0.046-0.466,0.228-0.681l25.725-19.621
					C367.999,222.822,368.232,222.772,368.445,222.839z"/>
				<path style="fill:#407BFF;" d="M342.109,242.594l25.725-19.621"/>
				<path style="fill:#263238;" d="M367.083,228.862l0.72-0.567c0.152-0.118,0.208-0.284,0.128-0.365l-2.839-2.954
					c-0.084-0.09-0.272-0.061-0.423,0.057l-0.724,0.559c-0.143,0.115-0.2,0.28-0.116,0.37l2.836,2.946
					C366.749,228.997,366.947,228.993,367.083,228.862z"/>
				<path style="fill:#263238;" d="M347.086,244.137l0.72-0.567c0.155-0.11,0.211-0.275,0.128-0.365l-2.836-2.946
					c-0.084-0.09-0.275-0.069-0.426,0.049l-0.72,0.567c-0.151,0.118-0.208,0.284-0.128,0.365l2.839,2.954
					C346.743,244.275,346.935,244.255,347.086,244.137z"/>
				<g>
					<path style="fill:#FF8B7B;" d="M317.222,173.92c2.324,4.663,7.235,12.687,12.15,13.215c0,0,2.854,7.051-2.499,20.085
						c-11.583-2.473-10.082-10.404-10.082-10.404c3.686-4.551,0.99-7.81-2.222-10.347L317.222,173.92z"/>
					<g>
						<path style="fill:#407BFF;" d="M327.676,208.742l0.419-1.02c5.495-13.377,2.671-21.143,2.546-21.451l-2.795,0.469l0.3,0.884
							c0.026,0.065,2.405,6.436-2.076,18.047c-8.945-2.37-8.427-9.878-8.381-10.141l-1.962,2.207
							c-0.017,0.092-1.826,8.064,10.871,10.776L327.676,208.742z"/>
					</g>
					<g>
						<path style="opacity:0.6;fill:#FFFFFF;" d="M327.676,208.742l0.419-1.02c5.495-13.377,2.671-21.143,2.546-21.451l-2.795,0.469
							l0.3,0.884c0.026,0.065,2.405,6.436-2.076,18.047c-8.945-2.37-8.427-9.878-8.381-10.141l-1.962,2.207
							c-0.017,0.092-1.826,8.064,10.871,10.776L327.676,208.742z"/>
					</g>
					<path style="opacity:0.2;enable-background:new    ;" d="M316.932,175.292c1.798,2.453,3.049,5.264,3.669,8.242
						c0.414,2.055-0.794,6.267-3.033,5.977c-0.836-1.175-1.849-2.214-3.003-3.078L316.932,175.292z"/>
					<path style="fill:#263238;" d="M303.289,197.506c-9.284-7.706-11.902-18.401-12.034-27.944
						c-0.025-1.799,0.369-7.613,2.165-7.716C307.356,161.046,291.618,175.02,303.289,197.506z"/>
					<path style="fill:#FF8B7B;" d="M314.743,165.119c4.537,6.931,6.606,9.767,5.79,15.669c-1.224,8.875-10.724,12.933-17.228,7.489
						c-5.869-4.899-12.301-15.418-7.776-22.895c3.214-5.351,10.157-7.083,15.508-3.869
						C312.534,162.412,313.803,163.647,314.743,165.119z"/>
					<g>
						<path style="fill:#263238;" d="M306.428,185.584c0,0,1.124-2.25,5.792-7.314c1.447,2.192,2.029,4.592-0.365,7.191
							c-1.033,1.427-3.333,1.579-5.137,0.339C306.619,185.731,306.522,185.66,306.428,185.584z"/>
						<path style="fill:#FF5652;" d="M311.37,182.984c-0.99,0.941-1.562,2.205-1.633,3.614c0.853-0.152,1.582-0.552,2.087-1.146
							c0.992-0.936,1.563-2.199,1.628-3.607C312.597,181.986,311.868,182.385,311.37,182.984z"/>
						<path style="fill:#FFFFFF;" d="M306.588,185.31c0.59,0.296,1.252,0.296,1.715-0.002c1.376-1.512,2.588-3.151,3.623-4.9
							c0.381-0.529,0.406-1.251,0.065-1.927C309.968,180.59,308.162,182.874,306.588,185.31z"/>
					</g>
					<path style="fill:#FF5652;" d="M302.229,178.73c0.305,1.678,0.379,3.39,0.22,5.088c0.879,0.056,1.738-0.278,2.349-0.913
						L302.229,178.73z"/>
					<path style="fill:#263238;" d="M304.773,171.786c-0.066,0.017-0.135,0.013-0.198-0.012c-0.961-0.31-2.012-0.138-2.824,0.462
						c-0.165,0.14-0.411,0.12-0.552-0.044c-0.144-0.156-0.135-0.399,0.021-0.543c0.006-0.006,0.013-0.011,0.02-0.017
						c1.014-0.77,2.338-1.001,3.553-0.619c0.21,0.065,0.331,0.284,0.275,0.497C305.021,171.645,304.911,171.749,304.773,171.786z"/>
					<path style="fill:#263238;" d="M295.526,178.779l-0.063,0.026c-0.218,0.01-0.404-0.156-0.418-0.374
						c-0.102-1.275,0.426-2.52,1.413-3.335c0.174-0.129,0.42-0.092,0.549,0.082c0.125,0.177,0.091,0.421-0.079,0.557
						c-0.769,0.652-1.174,1.636-1.086,2.64C295.844,178.567,295.713,178.735,295.526,178.779z"/>
					<g>
						<path style="fill:#263238;" d="M305.625,174.543c0.402,0.537,0.477,1.179,0.091,1.455c-0.386,0.276-0.968,0.042-1.373-0.503
							c-0.405-0.545-0.477-1.179-0.092-1.455C304.638,173.764,305.224,174.006,305.625,174.543z"/>
						<path style="fill:#263238;" d="M299.343,179.031c0.402,0.537,0.477,1.179,0.092,1.455c-0.386,0.276-0.964,0.031-1.365-0.507
							c-0.402-0.537-0.477-1.179-0.091-1.455C298.363,178.248,298.938,178.485,299.343,179.031z"/>
						<path style="fill:#263238;" d="M298.156,178.443l-1.583,0.641C296.573,179.083,297.996,179.548,298.156,178.443z"/>
						<path style="fill:#263238;" d="M304.444,173.99l-1.583,0.641C302.861,174.631,304.282,175.069,304.444,173.99z"/>
					</g>
					<g>
						<path style="fill:#263238;" d="M317.205,169.686c3.779,1.494,3.328,11.101,3.328,11.101
							c-0.157,0.371,4.113-5.311,1.717-18.619c-1.596-8.867-16.917-11.753-28.245-1.122c-2.211,2.075-0.89,14.128-0.022,11.946
							c1.048-2.635,7.798-7.655,12.007-8.734C305.572,163.962,314.976,168.805,317.205,169.686z"/>
					</g>
					<g>
						<path style="fill:#263238;" d="M316.433,161.967c1.241-0.704,2.118-2.016,2.292-3.433c0.175-1.416-0.357-2.903-1.39-3.887
							c-1.009-0.962-2.391-1.411-3.734-1.788c-1.342-0.377-2.734-0.728-3.858-1.553c-1.124-0.825-1.444-1.864-1.556-3.612
							c-1.182,1.135-1.143,2.338-1.19,2.741c-1.007-0.743-1.172-1.839-1.555-4.254c-0.779,1.502-0.981,2.937-0.51,4.167
							c-0.742-0.288-1.219-0.819-1.552-3.171c-1.236,3.039-0.451,5.632,0.176,6.074c-1.657-0.091-3.159,1.341-3.44,2.977
							c-0.28,1.635,0.49,3.33,1.703,4.463c1.213,1.133,2.813,1.768,4.429,2.144c3.263,0.76,6.748,0.539,9.889-0.626
							C316.144,161.995,316.433,161.967,316.433,161.967z"/>
					</g>
					<path style="fill:#FF8B7B;" d="M321.86,168.013c0.811,1.382,1.044,3.029,0.648,4.581c-0.538,2.06-2.647,1.992-4.018,0.54
						c-1.242-1.339-2.442-3.984-1.164-5.607c0.952-1.164,2.667-1.337,3.832-0.385C321.449,167.38,321.689,167.677,321.86,168.013z"
						/>
				</g>
				<g>
					<g>
						<g>
							<g>
								<g>
									<path style="fill:#FF8B7B;" d="M310.374,206.512l-8.695,1.15l0.124,7.657c0,0,5.917-1.293,8.328-4.405L310.374,206.512z"/>
									<polygon style="fill:#FF8B7B;" points="296.611,211.068 296.208,216.731 301.803,215.319 301.679,207.662 									"/>
								</g>
								<g style="opacity:0.2;enable-background:new    ;">
									<path d="M301.26,214.546c-0.033,0.021-0.097,0.076-0.154,0.154L301.26,214.546z"/>
								</g>
							</g>
						</g>
					</g>
					<g>
						<path style="fill:#FF8B7B;" d="M346.565,191.883c1.344,5.659,1.055,16.285,0.874,20.516c-0.085,1.986-0.808,3.924-2.187,5.356
							c-1.659,1.723-4.466,3.031-8.997,1.09c-4.611-1.975-26.258-6.775-26.206-7.902l0.222-4.375c0,0,13.172,0.421,27.296,1.985
							c0.634-6.615-0.641-14.99-0.053-17.232C338.466,187.679,344.87,184.71,346.565,191.883z"/>
					</g>
				</g>
				<path style="fill:#407BFF;" d="M337.816,182.613c-2.963,2.195-3.362,18.832-3.362,18.832l15.314,0.31
					c0,0-0.048-11.092-1.298-14.345C346.453,182.164,341.183,180.135,337.816,182.613z"/>
			</g>
			<g>
				<g>
					<polygon style="fill:#FF8B7B;" points="366.201,405.836 358.397,405.097 357.343,389.12 366.878,388.632 					"/>
					<polygon style="opacity:0.2;enable-background:new    ;" points="357.374,388.82 357.913,397.858 366.539,397.259 
						367.122,388.541 					"/>
				</g>
				<g>
					<path style="fill:#263238;" d="M356.826,402.806l10.19-0.688c0.376-0.011,0.717,0.217,0.85,0.569l2.758,7.915
						c0.239,0.653-0.096,1.376-0.749,1.615c-0.122,0.045-0.251,0.07-0.381,0.076c-3.571,0.18-5.289,0.093-9.804,0.397
						c-2.758,0.186-9.864,0.949-13.676,1.206c-3.813,0.258-4.76-3.455-3.238-3.902c6.802-1.995,10.647-4.373,12.646-6.528
						C355.787,403.07,356.291,402.833,356.826,402.806z"/>
					<path style="fill:#407BFF;" d="M355.712,404.292c0.083-0.027,0.139-0.105,0.139-0.192c0.002-0.086-0.053-0.163-0.135-0.189
						c-0.726-0.25-4.351-1.451-5.204-0.732c-0.168,0.142-0.243,0.364-0.195,0.578c0.054,0.385,0.283,0.724,0.62,0.917
						c0.632,0.301,1.341,0.396,2.03,0.272C353.902,404.825,354.823,404.606,355.712,404.292z M351.16,403.358
						c1.306,0.05,2.596,0.301,3.824,0.746c-1.785,0.535-3.192,0.622-3.835,0.238c-0.236-0.137-0.395-0.375-0.431-0.645
						c-0.022-0.073,0.001-0.151,0.058-0.201c0.115-0.076,0.247-0.12,0.385-0.129L351.16,403.358z"/>
					<path style="fill:#407BFF;" d="M355.797,404.257c0.05-0.053,0.066-0.13,0.041-0.199c-0.052-0.154-1.308-3.731-3.288-3.282
						c-0.519,0.117-0.657,0.397-0.635,0.607c-0.029,0.977,2.479,2.588,3.675,2.931l0.079-0.008
						C355.716,404.304,355.761,404.287,355.797,404.257z M352.774,401.133c1.243-0.132,2.154,1.773,2.514,2.584
						c-1.238-0.488-2.987-1.782-2.967-2.342c-0.002-0.106,0.102-0.206,0.321-0.229L352.774,401.133L352.774,401.133z"/>
				</g>
				<polygon style="fill:#407BFF;" points="369.548,394.544 354.949,395.262 353.329,388.805 370.291,387.713 				"/>
			</g>
		</g>
	</g>
</g>
<g id="Character_1">
	<g>
		<g>
			<g>
				<polygon style="fill:#FFC3BD;" points="184.08,405.234 176.725,403.551 180.352,387.19 190.162,390.583 				"/>
				<polygon style="opacity:0.2;enable-background:new    ;" points="192.428,384.898 181.696,380.671 179.361,391.659 
					188.454,394.522 				"/>
			</g>
			<g>
				<polygon style="fill:#FFC3BD;" points="214.597,405.234 207.125,404.181 210.198,384.852 220.26,387.4 				"/>
				<polygon style="opacity:0.2;enable-background:new    ;" points="222.035,381.543 210.983,378.242 209.264,390.568 
					218.75,392.252 				"/>
			</g>
			<g>
				<g>
					<path style="fill:#407BFF;" d="M259.107,295.276c0,0-42.551,4.947-44.454,22.536c-1.902,22.931-0.796,16.442-5.986,69.43
						l12.611,0.696c0,0,12.829-43.342,11.099-60.562c14.13,0,46.48,1.24,51.18-11.51c2.334-6.474,3.469-13.319,3.35-20.2
						L259.107,295.276z"/>
				</g>
				<g style="opacity:0.2;enable-background:new    ;">
					<path d="M259.107,295.276c0,0-42.551,4.947-44.454,22.536c-1.902,22.931-0.796,16.442-5.986,69.43l12.611,0.696
						c0,0,12.829-43.342,11.099-60.562c14.13,0,46.48,1.24,51.18-11.51c2.334-6.474,3.469-13.319,3.35-20.2L259.107,295.276z"/>
				</g>
				<polygon style="fill:#263238;" points="221.562,390.084 207.125,387.613 207.626,380.671 224.134,384.058 				"/>
			</g>
			<g>
				<path style="fill:#263238;" d="M207.317,400.468l8.42,1.665c0.296,0.043,0.509,0.358,0.48,0.709l-0.7,7.961
					c-0.128,0.858-0.811,1.439-1.54,1.311c-2.92-0.638-4.3-1.11-8-1.842c-2.28-0.449-7.49-1.547-10.66-1.901
					c-3.17-0.354-2.79-4.063-1.42-4.252c6.16-0.815,9.66-1.807,12.05-3.354C206.363,400.488,206.845,400.384,207.317,400.468z"/>
				<g>
					<path style="fill:#407BFF;" d="M203.539,401.911c0.663,0.09,1.333,0.11,2,0.06c0.068-0.001,0.129-0.045,0.15-0.11
						c0.034-0.059,0.034-0.131,0-0.19c-0.21-0.21-2.1-2-3.07-1.8c-0.228,0.039-0.416,0.201-0.49,0.42c-0.16,0.32-0.137,0.701,0.06,1
						C202.548,401.656,203.029,401.876,203.539,401.911z M205.149,401.641c-1.39,0-2.37-0.16-2.66-0.57
						c-0.116-0.197-0.116-0.443,0-0.64c0.032-0.109,0.12-0.193,0.23-0.22C203.229,400.101,204.369,400.941,205.149,401.641z"/>
					<path style="fill:#407BFF;" d="M205.549,401.971c0,0,0.05,0,0.08,0c0.058-0.022,0.102-0.07,0.12-0.13
						c0-0.09,0.55-2.22-0.09-3.07c-0.158-0.231-0.42-0.37-0.7-0.37c-0.309-0.044-0.607,0.13-0.72,0.42
						c-0.31,0.79,0.55,2.54,1.22,3.11C205.483,401.955,205.515,401.97,205.549,401.971z M205.029,398.761
						c0.142,0.023,0.268,0.102,0.35,0.22c0.293,0.789,0.325,1.652,0.09,2.46c-0.606-0.685-0.928-1.576-0.9-2.49
						c0-0.1,0.11-0.21,0.37-0.2L205.029,398.761z"/>
				</g>
			</g>
			<g>
				<g>
					<path style="fill:#407BFF;" d="M244.187,295.276c-0.33,0-56.2,5.75-56.27,24.7c-2.148,13.994-9.07,67.266-9.07,67.266
						l11.817,3.856c0,0,18.453-37.332,18.163-61.762c15.37-4.41,55.13,3,59.83-9.74c3.85-10.42,1.77-24.32,1.77-24.32
						L244.187,295.276z"/>
					<polygon style="fill:#263238;" points="191.354,392.468 177.37,387.882 178.561,381.822 194.166,387.145 					"/>
				</g>
			</g>
			<g>
				<path style="fill:#263238;" d="M177.207,399.552l8.44,1.753c0.292,0.054,0.5,0.398,0.47,0.779l-0.66,8.752
					c-0.113,0.95-0.797,1.601-1.529,1.455c-0.001,0-0.001,0-0.001,0c-2.92-0.675-4.3-1.195-8-1.961
					c-2.28-0.467-8.49-1.974-11.62-2.792c-3.13-0.818-2.43-4.805-1-4.831c6.19-0.091,10.2-1.104,12.58-2.831
					C176.287,399.583,176.751,399.469,177.207,399.552z"/>
				<g>
					<path style="fill:#407BFF;" d="M173.741,401.443c0.588-0.319,1.139-0.7,1.647-1.136c0.056-0.046,0.08-0.121,0.059-0.191
						c-0.021-0.064-0.079-0.11-0.146-0.116c-0.293-0.046-2.875-0.382-3.544,0.364c-0.15,0.173-0.201,0.411-0.135,0.63
						c0.058,0.353,0.301,0.648,0.637,0.773C172.775,401.849,173.305,401.733,173.741,401.443z M174.87,400.275
						c-1.087,0.852-1.997,1.267-2.475,1.12c-0.214-0.093-0.36-0.294-0.382-0.526c-0.038-0.105-0.014-0.223,0.062-0.305
						C172.433,400.205,173.833,400.176,174.87,400.275z"/>
					<path style="fill:#407BFF;" d="M175.388,400.307l0.073-0.053c0.037-0.046,0.045-0.109,0.018-0.162
						c-0.053-0.073-0.875-2.121-1.893-2.432c-0.264-0.086-0.553-0.041-0.778,0.121c-0.274,0.151-0.41,0.469-0.329,0.771
						c0.214,0.821,1.941,1.717,2.826,1.777C175.334,400.328,175.362,400.32,175.388,400.307z M173.063,398.028
						c0.126-0.071,0.277-0.086,0.415-0.042c0.705,0.465,1.245,1.142,1.542,1.933c-0.898-0.189-1.689-0.716-2.209-1.472
						c-0.059-0.081-0.035-0.235,0.182-0.379L173.063,398.028z"/>
				</g>
			</g>
			<g>
				<path style="fill:#FFC3BD;" d="M273.121,242.051c2.232,11.815,2.508,19.545,2.158,27.314c-0.148,3.28-2.245,6.182-5.35,7.248
					c-10.691,3.67-38.381,5.055-47.339,3.924l3.633-3.83c0,0,38.044-7.418,37.084-10.388c0,0-1.796-18.986-2.976-21.776
					L273.121,242.051z"/>
				<g>
					<path style="fill:#FFC3BD;" d="M226.991,276.794l-6.439-4.214l-6.671,4.521c0,0,5.082,4.37,9.869,3.255L226.991,276.794z"/>
					<path style="fill:#FFC3BD;" d="M214.678,274.054l-3.503,2.71c-0.277,0.214-0.148,0.657,0.2,0.69l4.136,0.388l5.042-5.263
						L214.678,274.054z"/>
				</g>
			</g>
			<g>
				<path style="fill:#FFC3BD;" d="M243.957,236.938c3.174,0.735,5.122,3.934,4.326,7.093c-0.343,1.36-11.19,26.717-11.719,27.564
					c-3.584,8.76-9.925,8.188-18.589,8.485c-6.885-0.077-12.021,0.501-18.748-0.963l1.654-3.594
					c4.747-0.207,14.821-3.688,20.73-5.357c2.28-0.644,4.272-1.97,5.267-4.12c2.79-6.028,9.221-21.285,10.145-24.899
					C237.801,238.091,240.885,236.226,243.957,236.938L243.957,236.938z"/>
				<g>
					<path style="fill:#FFC3BD;" d="M201.234,275.526l-5.52-2.416l-4.635,5.38c0,0,7.407,2.362,8.696,0.102L201.234,275.526z"/>
					<path style="fill:#FFC3BD;" d="M188.974,277.627l-1.365,1.287c-0.382,0.36,0.018,0.981,0.503,0.783l2.967-1.208l4.635-5.38
						l-4.885,3.079C190.166,276.607,189.545,277.089,188.974,277.627z"/>
				</g>
			</g>
			<g>
				<path style="fill:#FFC3BD;" d="M249.828,205.793l5.773,3.59l8.561,4.678c-0.03,0.371,0.18,5.114,0.525,6.465
					c0.696,2.728,1.66,4.917,6.46,5.418c0,0,6.25,4.417-4.815,6.1c-11.066,1.683-14.366-3.303-14.366-3.303
					C255.609,223.949,252.119,211.839,249.828,205.793z"/>
				<g>
					<path style="fill:#263238;" d="M269.816,194.109c0.206,0.66,0.711,1.117,1.157,1c0.446-0.117,0.634-0.747,0.438-1.41
						c-0.196-0.663-0.721-1.115-1.157-1.001C269.818,192.813,269.62,193.446,269.816,194.109z"/>
					<path style="fill:#263238;" d="M266.782,192.605c0.134-0.027,0.245-0.122,0.293-0.25c0.365-0.991,1.169-1.757,2.177-2.073
						c0.217-0.054,0.353-0.269,0.31-0.488c-0.049-0.22-0.268-0.359-0.488-0.31c0,0,0,0,0,0l0,0
						c-1.276,0.371-2.301,1.325-2.762,2.572c-0.077,0.211,0.025,0.445,0.233,0.531C266.621,192.615,266.703,192.62,266.782,192.605z
						"/>
					<path style="fill:#ED847E;" d="M270.291,194.786c1.098,1.635,2.409,3.116,3.898,4.405c-0.685,0.728-1.66,1.113-2.659,1.048
						L270.291,194.786z"/>
					<path style="fill:#FFC3BD;" d="M246.729,198.076c2.936,8.04,4.264,12.937,9.666,15.988c2.449,1.436,5.215,1.841,7.789,1.332
						c1.55-0.305,3.039-0.937,4.341-1.867l0.009-0.003c1.232-0.887,2.292-2.024,3.106-3.409c1.142-1.948,1.667-4.196,1.511-6.442
						c-0.414-7.811-5.16-19.644-14.18-20.823c-6.139-0.977-11.904,3.208-12.882,9.348C245.774,194.173,246,196.208,246.729,198.076z
						"/>
					<path style="opacity:0.2;enable-background:new    ;" d="M264.184,215.395c1.55-0.305,3.039-0.937,4.341-1.867
						c-0.217,0.078-2.982,1.087-4.448,0.35L264.184,215.395z"/>
				</g>
			</g>
			<path style="fill:#263238;" d="M242.859,204.752c4.402,6.69,10.098,11.569,10.098,11.569c2.828-0.846,5.288-1.327,8.163-1.994
				c1.124-3.241,1.364-13.391,2.427-15.113c1.063-1.722,3.256-3.991,4.193-5.785c1.284-2.46,0.933-5.599-0.599-7.913
				c-1.532-2.314-4.124-3.773-6.834-4.368c-6.226-1.369-11.125,1.681-13.423,3.684c-1.878,1.636-2.946,3.657-3.04,5.031
				C239.958,192.454,238.861,198.675,242.859,204.752z"/>
			<path style="fill:#263238;" d="M243.467,185.705c-0.173,1.368-0.059,2.772,0.334,4.095c-0.973-0.247-1.676-1.197-1.761-2.197
				C241.956,186.603,242.55,186.112,243.467,185.705z"/>
			<g>
				<path style="fill:#FFC3BD;" d="M261.015,199.862c0.919,1.925,2.427,3.508,4.306,4.518c2.35,1.166,3.351-1.045,2.551-3.682
					c-0.742-2.381-2.808-5.875-5.137-5.917C260.406,194.74,259.817,197.393,261.015,199.862z"/>
			</g>
			<g>
				<path style="fill:#263238;" d="M283.777,228.436c-0.75-2-4.487-4.368-7.971-4h-2.329c-2.48,0-3.09,0.2-6.09,0.55
					c-5.716,0.632-11.392,1.587-17,2.86c-2.58,0.68-5.07,1.54-7.05,2.28c-1.999-0.586-0.191,16.868,0.19,38.316
					c0.181,10.191,0.466,20.254,0.72,27.194h42.66c0,0-0.574-12.885-0.454-27.945C286.522,258.651,286.867,236.666,283.777,228.436z
					"/>
				<path style="opacity:0.2;enable-background:new    ;" d="M242.605,258.235c0.32,3.83,0.65,7.85,1,11.87
					c4.402-14.434,7.23-28.937,7.23-28.937L242.605,258.235z"/>
			</g>
			<path style="fill:#263238;" d="M239.337,231.796c-5.491,4.361-10.912,25.705-10.912,25.705l13.077,6.942
				c4.477-5.829,11.538-18.73,11.587-23.812C253.229,232.822,246.331,227.065,239.337,231.796z"/>
		</g>
		<g>
			<g>
				<path style="fill:#263238;" d="M228.853,411.333c0,2.402-1.948,4.35-4.35,4.35c-2.402,0-4.35-1.948-4.35-4.35
					c0-2.402,1.948-4.35,4.35-4.35C226.905,406.983,228.853,408.93,228.853,411.333L228.853,411.333z"/>
				<path style="fill:#263238;" d="M293.743,411.333c0,2.402,1.948,4.35,4.35,4.35c2.402,0,4.35-1.948,4.35-4.35
					c0-2.402-1.948-4.35-4.35-4.35C295.69,406.983,293.743,408.93,293.743,411.333L293.743,411.333z"/>
				<path style="fill:#263238;" d="M257.064,409.942c0,2.402,1.948,4.35,4.35,4.35c2.402,0,4.35-1.948,4.35-4.35
					c0-2.402-1.948-4.35-4.35-4.35C259.011,405.592,257.064,407.54,257.064,409.942L257.064,409.942z"/>
			</g>
			<g>
				<path style="fill:#263238;" d="M303.87,404.49c-0.175,1.01-1.01,1.73-1.957,1.7l-41.671-0.62l-39.017,0.96
					c-0.946,0.03-1.782-0.69-1.965-1.7c-0.202-1.15,0.487-2.26,1.534-2.48l21.309-4.51c2.213-0.45,4.455-0.68,6.696-0.68h22.898
					c2.25,0,4.492,0.23,6.696,0.68l23.954,4.17C303.392,402.23,304.081,403.34,303.87,404.49z"/>
			</g>
			<g>
				<rect x="253.543" y="358.663" style="fill:#263238;" width="15.43" height="38.51"/>
				<rect x="255.763" y="340.743" style="fill:#407BFF;" width="11" height="17.91"/>
				<rect x="255.763" y="340.743" style="opacity:0.2;enable-background:new    ;" width="11" height="17.91"/>
				<rect x="255.763" y="340.743" style="opacity:0.5;enable-background:new    ;" width="11" height="17.91"/>
				<polygon style="opacity:0.5;enable-background:new    ;" points="255.763,346.003 266.763,348.773 266.763,340.743 
					255.763,340.743 				"/>
			</g>
			<g>
				<g>
					<rect x="218.513" y="300.223" style="fill:#407BFF;" width="5.59" height="23.85"/>
					<rect x="218.513" y="300.223" style="opacity:0.5;enable-background:new    ;" width="5.59" height="23.85"/>
					<path style="fill:#407BFF;" d="M252.128,340.743v-96.925c0-3.926,1.694-7.66,4.648-10.246l7.39-6.47
						c2.483-2.173,5.67-3.372,8.97-3.372h13.593l13.045,13.88v103.132H252.128z"/>
					<path style="fill:#407BFF;" d="M212.383,320.683h60.9v20.06h-70.82c-3.977,0.003-7.202-3.218-7.206-7.194
						c-0.001-1.293,0.346-2.563,1.006-3.676l0,0C199.633,324.175,205.762,320.68,212.383,320.683z"/>
					<path style="opacity:0.7;fill:#FFFFFF;" d="M299.776,237.616v103.132H202.46c-3.97,0-7.2-3.22-7.2-7.2c0-1.29,0.34-2.56,1-3.67
						c3.37-5.69,9.48-9.19,16.09-9.19h30.673c5.029,0,9.107-4.077,9.107-9.107v-67.765c0-3.92,1.69-7.66,4.65-10.24l7.39-6.47
						c2.48-2.18,5.67-3.37,8.97-3.37h13.586L299.776,237.616z"/>
					<g>
						<path style="fill:#407BFF;" d="M261.014,340.743v-96.925c0-3.926,1.694-7.66,4.648-10.246l7.39-6.47
							c2.483-2.173,5.67-3.372,8.97-3.372h7.703c3.758,0,7.349,1.553,9.923,4.292l5.317,5.657c2.373,2.525,3.695,5.861,3.695,9.326
							v87.355c0,5.733-4.648,10.381-10.381,10.381H261.014z"/>
						<path style="opacity:0.5;fill:#FFFFFF;" d="M261.014,340.743v-96.925c0-3.926,1.694-7.66,4.648-10.246l7.39-6.47
							c2.483-2.173,5.67-3.372,8.97-3.372h7.703c3.758,0,7.349,1.553,9.923,4.292l5.317,5.657c2.373,2.525,3.695,5.861,3.695,9.326
							v87.355c0,5.733-4.648,10.381-10.381,10.381H261.014z"/>
					</g>
				</g>
				<g>
					<path style="fill:#407BFF;" d="M240.293,307.303c-12.303-4.295-25.697-4.295-38,0c-2.554,0.963-5.425-0.131-6.69-2.55l0,0
						c-1.14-2.41,0.39-5.53,3.49-6.62c14.367-5.02,30.013-5.02,44.38,0c3.1,1.08,4.63,4.21,3.49,6.62l0,0
						C245.696,307.158,242.841,308.249,240.293,307.303z"/>
					<path style="opacity:0.7;fill:#FFFFFF;" d="M240.293,307.303c-12.303-4.295-25.697-4.295-38,0
						c-2.554,0.963-5.425-0.131-6.69-2.55l0,0c-1.14-2.41,0.39-5.53,3.49-6.62c14.367-5.02,30.013-5.02,44.38,0
						c3.1,1.08,4.63,4.21,3.49,6.62l0,0C245.696,307.158,242.841,308.249,240.293,307.303z"/>
				</g>
			</g>
		</g>
	</g>
	<g>
		<g>
			<circle style="fill:#E0E0E0;" cx="380.093" cy="95.26" r="20.734"/>
			
				<ellipse transform="matrix(0.1602 -0.9871 0.9871 0.1602 224.8656 453.0824)" style="fill:#EBEBEB;" cx="378.7" cy="94.392" rx="20.734" ry="20.734"/>
			<path style="opacity:0.8;fill:#FFFFFF;" d="M395.34,94.531c0,9.19-7.45,16.64-16.64,16.64c-9.19,0-16.639-7.45-16.639-16.64
				c0-9.19,7.45-16.639,16.639-16.639C387.89,77.891,395.34,85.341,395.34,94.531z"/>
		</g>
		<g>
			<g>
				<path style="fill:#E0E0E0;" d="M377.801,96.101c-0.659-0.659-0.659-1.727,0-2.386c0.659-0.659,1.727-0.659,2.386,0
					c0.659,0.659,0.659,1.727,0,2.386C379.528,96.76,378.46,96.76,377.801,96.101z"/>
			</g>
			<g>
				<polygon style="fill:#E0E0E0;" points="378.692,94.332 388.519,94.034 388.55,95.048 379.647,95.318 378.689,110.801 
					377.677,110.739 				"/>
			</g>
		</g>
	</g>
</g>
<g id="Speech_Bubbles_2">
	<g>
		<g id="freepik--speech-bubbles--inject-120_5_">
			<path style="fill:#FFFFFF;stroke:#407BFF;stroke-miterlimit:10;" d="M311.039,121.908l27.506-0.276
				c2.082-0.049,3.661-1.607,3.723-3.676l0.046-28.204c0.004-0.176-0.007-0.353-0.033-0.53c-0.257-1.782-1.903-3.171-3.678-3.101
				l-61.298,0.365c-2.081,0.054-3.657,1.614-3.718,3.683l-0.04,28.199c-0.004,0.176,0.007,0.353,0.033,0.53
				c0.257,1.782,1.903,3.171,3.678,3.101l24.878-0.035l4.933,15.439L311.039,121.908z"/>
		</g>
		<g>
			<line style="fill:#FFFFFF;stroke:#407BFF;stroke-miterlimit:10;" x1="314.298" y1="92.654" x2="286.639" y2="92.654"/>
			<line style="fill:#FFFFFF;stroke:#407BFF;stroke-miterlimit:10;" x1="337.446" y1="92.654" x2="320.754" y2="92.654"/>
			<line style="fill:#FFFFFF;stroke:#407BFF;stroke-miterlimit:10;" x1="294.45" y1="100.033" x2="279.3" y2="100.033"/>
			<line style="fill:#FFFFFF;stroke:#407BFF;stroke-miterlimit:10;" x1="336.398" y1="100.033" x2="299.853" y2="100.033"/>
			<line style="fill:#FFFFFF;stroke:#407BFF;stroke-miterlimit:10;" x1="317.724" y1="107.412" x2="279.222" y2="107.412"/>
			<line style="fill:#FFFFFF;stroke:#407BFF;stroke-miterlimit:10;" x1="336.319" y1="107.412" x2="323.737" y2="107.412"/>
			<line style="fill:#FFFFFF;stroke:#407BFF;stroke-miterlimit:10;" x1="289.375" y1="114.791" x2="279.379" y2="114.791"/>
		</g>
	</g>
	<g>
		<g>
			<g id="freepik--speech-bubbles--inject-120_4_">
				<path style="fill:#FFFFFF;stroke:#407BFF;stroke-miterlimit:10;" d="M347.867,126.425l41.848-0.365
					c1.775-0.069,3.422,1.319,3.678,3.101c0.026,0.177,0.036,0.354,0.033,0.53l-0.046,28.204c-0.063,2.069-1.641,3.628-3.723,3.676
					l-26.519,0.276c-5.733,8.123-15.175,9.442-15.175,9.442s5.308-5.385,6.273-9.386l-6.417,0.035
					c-1.775,0.07-3.421-1.319-3.678-3.101c-0.026-0.177-0.036-0.354-0.033-0.53l0.04-28.199
					C344.211,128.039,345.786,126.479,347.867,126.425z"/>
			</g>
			<g>
				<line style="fill:#FFFFFF;stroke:#407BFF;stroke-miterlimit:10;" x1="365.012" y1="139.972" x2="349.862" y2="139.972"/>
				<g>
					<line style="fill:#FFFFFF;stroke:#407BFF;stroke-miterlimit:10;" x1="382.236" y1="132.592" x2="354.577" y2="132.592"/>
					<line style="fill:none;stroke:#407BFF;stroke-miterlimit:10;" x1="387.172" y1="139.969" x2="367.79" y2="139.969"/>
					<line style="fill:#FFFFFF;stroke:#407BFF;stroke-miterlimit:10;" x1="385.662" y1="147.351" x2="347.159" y2="147.351"/>
					<line style="fill:#FFFFFF;stroke:#407BFF;stroke-miterlimit:10;" x1="357.313" y1="154.73" x2="347.316" y2="154.73"/>
				</g>
			</g>
		</g>
	</g>
</g>
<g id="Speech_Bubbles_1">
	<g>
		<g>
			<g>
				<path style="fill:#FFFFFF;stroke:#407BFF;stroke-miterlimit:10;" d="M259.866,157.535l-2.413,7.803l-3.181-7.942
					c-7.329-1.469-12.844-7.946-12.844-15.71c0-8.847,7.172-16.025,16.025-16.025c8.853,0,16.025,7.178,16.025,16.025
					C273.478,149.716,267.57,156.374,259.866,157.535z"/>
			</g>
			<g>
				<path style="fill:#407BFF;" d="M259.1,139.248c0.087-0.993-0.78-1.588-2.046-1.588c-1.34,0-2.516,0.669-3.259,1.787
					l-3.525-1.986c1.509-2.209,4.046-3.673,7.695-3.673c3.823,0,6.41,1.638,6.146,4.667c-0.339,3.872-4.46,4.443-4.66,6.727h-4.419
					C255.315,141.928,258.937,141.109,259.1,139.248z M254.089,149.127c0.128-1.465,1.365-2.557,3.029-2.557
					c1.663,0,2.735,1.092,2.606,2.557c-0.126,1.44-1.395,2.606-3.058,2.606C255.003,151.733,253.963,150.567,254.089,149.127z"/>
			</g>
		</g>
		<g>
			<g>
				<circle style="fill:#FFFFFF;stroke:#407BFF;stroke-miterlimit:10;" cx="234.613" cy="179.243" r="1.635"/>
				<path style="fill:#FFFFFF;stroke:#407BFF;stroke-miterlimit:10;" d="M231.498,173.049c0.28,0.43,0.45,0.94,0.45,1.49
					c0,1.5-1.22,2.72-2.72,2.72c-1.18,0-2.18-0.75-2.56-1.8c-1.47,0.44-3.02,0.68-4.63,0.68c-8.84,0-16-7.16-16-15.99
					s7.16-15.99,16-15.99c8.83,0,15.99,7.16,15.99,15.99C238.028,165.439,235.458,170.129,231.498,173.049z"/>
			</g>
			<g>
				<g>
					<path style="fill:#407BFF;" d="M223.708,157.438c0.087-0.993-0.78-1.588-2.046-1.588c-1.34,0-2.516,0.669-3.259,1.787
						l-3.525-1.986c1.509-2.208,4.045-3.673,7.695-3.673c3.823,0,6.41,1.638,6.146,4.667c-0.339,3.872-4.46,4.443-4.66,6.727h-4.419
						C219.924,160.118,223.546,159.299,223.708,157.438z M218.698,167.317c0.129-1.465,1.365-2.557,3.029-2.557
						c1.663,0,2.735,1.092,2.606,2.557c-0.126,1.44-1.395,2.606-3.058,2.606C219.612,169.923,218.572,168.757,218.698,167.317z"/>
				</g>
			</g>
		</g>
	</g>
</g>
</svg>
