<svg width="97" height="90" viewBox="0 0 97 90" fill="none" xmlns="http://www.w3.org/2000/svg">
<g id="Group 124">
<path id="Ellipse 15" d="M64.0371 17.1841C71.6678 21.9328 77.4543 29.5755 80.007 38.6617" stroke="#052CFD" stroke-width="4"/>
<path id="Vector 3" d="M78 37.5L93 36.4286" stroke="#052CFD" stroke-width="4"/>
<path id="Ellipse 16" d="M94.0787 38.2422C91 23.5714 76.0558 11.9635 60.0208 11.9635C40.352 11.9635 24.4072 28.6103 24.4072 49.1451C24.4072 60.0442 28.899 69.848 36.0553 76.6489" stroke="#052CFD" stroke-width="4"/>
<path id="Ellipse 17" d="M52.9824 8.35528C47.1177 6.70445 40.7705 6.59586 34.4811 8.35528C15.4377 13.6826 4.13653 34.1187 9.2392 54.0006C14.3419 73.8825 33.9161 85.6813 52.9595 80.354C65.7218 76.7838 75.0068 66.4279 78.2076 54.0006" stroke="#052CFD" stroke-width="4"/>
<path id="Ellipse 18" d="M71.0815 73.4519C81.7287 71.5957 90.059 63.936 93.5974 54.0926L76.2728 54.0926" stroke="#052CFD" stroke-width="4"/>
</g>
</svg>
