<svg width="36" height="33" viewBox="0 0 36 33" fill="none" xmlns="http://www.w3.org/2000/svg">
<g id="Group 124">
<path id="Ellipse 15" d="M23.4805 6.30084C26.2784 8.04204 28.4001 10.8444 29.3361 14.176" stroke="#052CFD" stroke-width="1.46667"/>
<path id="Vector 3" d="M28.6001 13.75L34.1001 13.3572" stroke="#052CFD" stroke-width="1.46667"/>
<path id="Ellipse 16" d="M34.4954 14.0221C33.3666 8.64283 27.887 4.3866 22.0075 4.3866C14.7956 4.3866 8.94922 10.4904 8.94922 18.0199C8.94922 22.0162 10.5962 25.6109 13.2202 28.1046" stroke="#052CFD" stroke-width="1.46667"/>
<path id="Ellipse 17" d="M19.4269 3.0636C17.2765 2.45829 14.9492 2.41848 12.6431 3.0636C5.6605 5.01696 1.51673 12.5102 3.38771 19.8002C5.25868 27.0903 12.4359 31.4165 19.4185 29.4631C24.098 28.1541 27.5025 24.3569 28.6761 19.8002" stroke="#052CFD" stroke-width="1.46667"/>
<path id="Ellipse 18" d="M26.0631 26.9323C29.9671 26.2517 33.0216 23.4432 34.319 19.8339L27.9666 19.8339" stroke="#052CFD" stroke-width="1.46667"/>
</g>
</svg>
